<mxfile host="app.diagrams.net" modified="2023-04-18T07:41:24.390Z" agent="Mozilla/5.0 (Windows NT 10.0; Win64; x64) AppleWebKit/537.36 (KHTML, like Gecko) Chrome/112.0.0.0 Safari/537.36 OPR/99.0.0.0 (Edition developer)" etag="PSrQrbkVZp-is8HC_LP7" version="21.1.8" type="device">
  <diagram name="Страница 1" id="Q3VayZMxY04oRmm05e98">
    <mxGraphModel dx="1714" dy="872" grid="1" gridSize="10" guides="1" tooltips="1" connect="1" arrows="1" fold="1" page="1" pageScale="1" pageWidth="827" pageHeight="1169" math="0" shadow="0">
      <root>
        <mxCell id="0" />
        <mxCell id="1" parent="0" />
        <mxCell id="w9KVr3oSeyBHi2WgNiiw-1" value="Customer" style="shape=umlActor;verticalLabelPosition=bottom;verticalAlign=top;html=1;outlineConnect=0;" vertex="1" parent="1">
          <mxGeometry x="70" y="290" width="30" height="60" as="geometry" />
        </mxCell>
        <mxCell id="w9KVr3oSeyBHi2WgNiiw-2" value="Admin" style="shape=umlActor;verticalLabelPosition=bottom;verticalAlign=top;html=1;outlineConnect=0;" vertex="1" parent="1">
          <mxGeometry x="520" y="320" width="30" height="60" as="geometry" />
        </mxCell>
        <mxCell id="w9KVr3oSeyBHi2WgNiiw-4" value="Переглянути товари" style="ellipse;whiteSpace=wrap;html=1;" vertex="1" parent="1">
          <mxGeometry x="-65" y="210" width="100" height="60" as="geometry" />
        </mxCell>
        <mxCell id="w9KVr3oSeyBHi2WgNiiw-5" value="Знайти товар" style="ellipse;whiteSpace=wrap;html=1;" vertex="1" parent="1">
          <mxGeometry x="130" y="210" width="100" height="60" as="geometry" />
        </mxCell>
        <mxCell id="w9KVr3oSeyBHi2WgNiiw-6" value="Знайти товар за артиклем" style="ellipse;whiteSpace=wrap;html=1;" vertex="1" parent="1">
          <mxGeometry x="230" y="80" width="100" height="60" as="geometry" />
        </mxCell>
        <mxCell id="w9KVr3oSeyBHi2WgNiiw-7" value="Відкрити інформацію про товар" style="ellipse;whiteSpace=wrap;html=1;" vertex="1" parent="1">
          <mxGeometry x="-120" y="290" width="100" height="60" as="geometry" />
        </mxCell>
        <mxCell id="w9KVr3oSeyBHi2WgNiiw-8" value="Купити товар" style="ellipse;whiteSpace=wrap;html=1;" vertex="1" parent="1">
          <mxGeometry x="180" y="290" width="100" height="60" as="geometry" />
        </mxCell>
        <mxCell id="w9KVr3oSeyBHi2WgNiiw-9" value="Переглянути всі замовлення" style="ellipse;whiteSpace=wrap;html=1;" vertex="1" parent="1">
          <mxGeometry x="130" y="370" width="100" height="60" as="geometry" />
        </mxCell>
        <mxCell id="w9KVr3oSeyBHi2WgNiiw-10" value="Відмовитися від обраного замовлення" style="ellipse;whiteSpace=wrap;html=1;" vertex="1" parent="1">
          <mxGeometry x="-65" y="370" width="100" height="60" as="geometry" />
        </mxCell>
        <mxCell id="w9KVr3oSeyBHi2WgNiiw-11" value="Додати клієнта" style="ellipse;whiteSpace=wrap;html=1;" vertex="1" parent="1">
          <mxGeometry x="485" y="180" width="100" height="60" as="geometry" />
        </mxCell>
        <mxCell id="w9KVr3oSeyBHi2WgNiiw-12" value="Редагувати інформацію про клієнта" style="ellipse;whiteSpace=wrap;html=1;" vertex="1" parent="1">
          <mxGeometry x="600" y="240" width="100" height="60" as="geometry" />
        </mxCell>
        <mxCell id="w9KVr3oSeyBHi2WgNiiw-15" value="Видалити клієнта" style="ellipse;whiteSpace=wrap;html=1;" vertex="1" parent="1">
          <mxGeometry x="370" y="240" width="100" height="60" as="geometry" />
        </mxCell>
        <mxCell id="w9KVr3oSeyBHi2WgNiiw-16" value="Додати товар" style="ellipse;whiteSpace=wrap;html=1;" vertex="1" parent="1">
          <mxGeometry x="330" y="320" width="100" height="60" as="geometry" />
        </mxCell>
        <mxCell id="w9KVr3oSeyBHi2WgNiiw-17" value="Редагувати інформацію про товар" style="ellipse;whiteSpace=wrap;html=1;" vertex="1" parent="1">
          <mxGeometry x="360" y="400" width="100" height="60" as="geometry" />
        </mxCell>
        <mxCell id="w9KVr3oSeyBHi2WgNiiw-18" value="Видалити товар" style="ellipse;whiteSpace=wrap;html=1;" vertex="1" parent="1">
          <mxGeometry x="430" y="460" width="100" height="60" as="geometry" />
        </mxCell>
        <mxCell id="w9KVr3oSeyBHi2WgNiiw-19" value="Переглянути всі замовлення на всі товари" style="ellipse;whiteSpace=wrap;html=1;" vertex="1" parent="1">
          <mxGeometry x="540" y="460" width="100" height="60" as="geometry" />
        </mxCell>
        <mxCell id="w9KVr3oSeyBHi2WgNiiw-20" value="Видалити обране замовлення" style="ellipse;whiteSpace=wrap;html=1;" vertex="1" parent="1">
          <mxGeometry x="600" y="400" width="100" height="60" as="geometry" />
        </mxCell>
        <mxCell id="w9KVr3oSeyBHi2WgNiiw-21" value="Видалити абсолютно всі замовлення на всі товари&amp;nbsp;" style="ellipse;whiteSpace=wrap;html=1;" vertex="1" parent="1">
          <mxGeometry x="620" y="320" width="100" height="60" as="geometry" />
        </mxCell>
        <mxCell id="w9KVr3oSeyBHi2WgNiiw-24" value="" style="endArrow=classic;html=1;rounded=0;" edge="1" parent="1" source="w9KVr3oSeyBHi2WgNiiw-1" target="w9KVr3oSeyBHi2WgNiiw-5">
          <mxGeometry width="50" height="50" relative="1" as="geometry">
            <mxPoint x="300" y="390" as="sourcePoint" />
            <mxPoint x="350" y="340" as="targetPoint" />
          </mxGeometry>
        </mxCell>
        <mxCell id="w9KVr3oSeyBHi2WgNiiw-26" value="" style="endArrow=classic;html=1;rounded=0;" edge="1" parent="1" source="w9KVr3oSeyBHi2WgNiiw-1" target="w9KVr3oSeyBHi2WgNiiw-8">
          <mxGeometry width="50" height="50" relative="1" as="geometry">
            <mxPoint x="110" y="317" as="sourcePoint" />
            <mxPoint x="161" y="274" as="targetPoint" />
          </mxGeometry>
        </mxCell>
        <mxCell id="w9KVr3oSeyBHi2WgNiiw-27" value="" style="endArrow=classic;html=1;rounded=0;" edge="1" parent="1" source="w9KVr3oSeyBHi2WgNiiw-1" target="w9KVr3oSeyBHi2WgNiiw-9">
          <mxGeometry width="50" height="50" relative="1" as="geometry">
            <mxPoint x="120" y="327" as="sourcePoint" />
            <mxPoint x="171" y="284" as="targetPoint" />
          </mxGeometry>
        </mxCell>
        <mxCell id="w9KVr3oSeyBHi2WgNiiw-28" value="" style="endArrow=classic;html=1;rounded=0;" edge="1" parent="1" source="w9KVr3oSeyBHi2WgNiiw-1" target="w9KVr3oSeyBHi2WgNiiw-10">
          <mxGeometry width="50" height="50" relative="1" as="geometry">
            <mxPoint x="110" y="343" as="sourcePoint" />
            <mxPoint x="161" y="386" as="targetPoint" />
          </mxGeometry>
        </mxCell>
        <mxCell id="w9KVr3oSeyBHi2WgNiiw-29" value="" style="endArrow=classic;html=1;rounded=0;" edge="1" parent="1" source="w9KVr3oSeyBHi2WgNiiw-1" target="w9KVr3oSeyBHi2WgNiiw-7">
          <mxGeometry width="50" height="50" relative="1" as="geometry">
            <mxPoint x="80" y="342" as="sourcePoint" />
            <mxPoint x="25" y="386" as="targetPoint" />
          </mxGeometry>
        </mxCell>
        <mxCell id="w9KVr3oSeyBHi2WgNiiw-30" value="" style="endArrow=classic;html=1;rounded=0;" edge="1" parent="1" source="w9KVr3oSeyBHi2WgNiiw-1" target="w9KVr3oSeyBHi2WgNiiw-4">
          <mxGeometry width="50" height="50" relative="1" as="geometry">
            <mxPoint x="80" y="330" as="sourcePoint" />
            <mxPoint x="-10" y="330" as="targetPoint" />
          </mxGeometry>
        </mxCell>
        <mxCell id="w9KVr3oSeyBHi2WgNiiw-31" value="" style="endArrow=classic;html=1;rounded=0;" edge="1" parent="1" source="w9KVr3oSeyBHi2WgNiiw-2" target="w9KVr3oSeyBHi2WgNiiw-11">
          <mxGeometry width="50" height="50" relative="1" as="geometry">
            <mxPoint x="90" y="340" as="sourcePoint" />
            <mxPoint y="340" as="targetPoint" />
          </mxGeometry>
        </mxCell>
        <mxCell id="w9KVr3oSeyBHi2WgNiiw-32" value="" style="endArrow=classic;html=1;rounded=0;" edge="1" parent="1" source="w9KVr3oSeyBHi2WgNiiw-2" target="w9KVr3oSeyBHi2WgNiiw-12">
          <mxGeometry width="50" height="50" relative="1" as="geometry">
            <mxPoint x="545" y="330" as="sourcePoint" />
            <mxPoint x="545" y="230" as="targetPoint" />
          </mxGeometry>
        </mxCell>
        <mxCell id="w9KVr3oSeyBHi2WgNiiw-33" value="" style="endArrow=classic;html=1;rounded=0;" edge="1" parent="1" source="w9KVr3oSeyBHi2WgNiiw-2" target="w9KVr3oSeyBHi2WgNiiw-21">
          <mxGeometry width="50" height="50" relative="1" as="geometry">
            <mxPoint x="560" y="345" as="sourcePoint" />
            <mxPoint x="619" y="286" as="targetPoint" />
          </mxGeometry>
        </mxCell>
        <mxCell id="w9KVr3oSeyBHi2WgNiiw-34" value="" style="endArrow=classic;html=1;rounded=0;" edge="1" parent="1" source="w9KVr3oSeyBHi2WgNiiw-2" target="w9KVr3oSeyBHi2WgNiiw-20">
          <mxGeometry width="50" height="50" relative="1" as="geometry">
            <mxPoint x="560" y="359" as="sourcePoint" />
            <mxPoint x="650" y="353" as="targetPoint" />
          </mxGeometry>
        </mxCell>
        <mxCell id="w9KVr3oSeyBHi2WgNiiw-35" value="" style="endArrow=classic;html=1;rounded=0;" edge="1" parent="1" source="w9KVr3oSeyBHi2WgNiiw-2" target="w9KVr3oSeyBHi2WgNiiw-19">
          <mxGeometry width="50" height="50" relative="1" as="geometry">
            <mxPoint x="560" y="370" as="sourcePoint" />
            <mxPoint x="627" y="417" as="targetPoint" />
          </mxGeometry>
        </mxCell>
        <mxCell id="w9KVr3oSeyBHi2WgNiiw-36" value="" style="endArrow=classic;html=1;rounded=0;" edge="1" parent="1" source="w9KVr3oSeyBHi2WgNiiw-2" target="w9KVr3oSeyBHi2WgNiiw-18">
          <mxGeometry width="50" height="50" relative="1" as="geometry">
            <mxPoint x="557" y="390" as="sourcePoint" />
            <mxPoint x="598" y="491" as="targetPoint" />
          </mxGeometry>
        </mxCell>
        <mxCell id="w9KVr3oSeyBHi2WgNiiw-37" value="" style="endArrow=classic;html=1;rounded=0;" edge="1" parent="1" source="w9KVr3oSeyBHi2WgNiiw-2" target="w9KVr3oSeyBHi2WgNiiw-17">
          <mxGeometry width="50" height="50" relative="1" as="geometry">
            <mxPoint x="533" y="390" as="sourcePoint" />
            <mxPoint x="492" y="491" as="targetPoint" />
          </mxGeometry>
        </mxCell>
        <mxCell id="w9KVr3oSeyBHi2WgNiiw-38" value="" style="endArrow=classic;html=1;rounded=0;" edge="1" parent="1" source="w9KVr3oSeyBHi2WgNiiw-2" target="w9KVr3oSeyBHi2WgNiiw-16">
          <mxGeometry width="50" height="50" relative="1" as="geometry">
            <mxPoint x="530" y="370" as="sourcePoint" />
            <mxPoint x="454" y="418" as="targetPoint" />
          </mxGeometry>
        </mxCell>
        <mxCell id="w9KVr3oSeyBHi2WgNiiw-39" value="" style="endArrow=classic;html=1;rounded=0;" edge="1" parent="1" source="w9KVr3oSeyBHi2WgNiiw-2" target="w9KVr3oSeyBHi2WgNiiw-15">
          <mxGeometry width="50" height="50" relative="1" as="geometry">
            <mxPoint x="530" y="359" as="sourcePoint" />
            <mxPoint x="430" y="353" as="targetPoint" />
          </mxGeometry>
        </mxCell>
        <mxCell id="w9KVr3oSeyBHi2WgNiiw-40" value="Знайти товар за назвою" style="ellipse;whiteSpace=wrap;html=1;" vertex="1" parent="1">
          <mxGeometry x="40" y="80" width="100" height="60" as="geometry" />
        </mxCell>
        <mxCell id="w9KVr3oSeyBHi2WgNiiw-41" value="Extends" style="endArrow=block;endSize=16;endFill=0;html=1;rounded=0;" edge="1" parent="1" source="w9KVr3oSeyBHi2WgNiiw-5" target="w9KVr3oSeyBHi2WgNiiw-40">
          <mxGeometry width="160" relative="1" as="geometry">
            <mxPoint x="230" y="380" as="sourcePoint" />
            <mxPoint x="390" y="380" as="targetPoint" />
          </mxGeometry>
        </mxCell>
        <mxCell id="w9KVr3oSeyBHi2WgNiiw-42" value="Extends" style="endArrow=block;endSize=16;endFill=0;html=1;rounded=0;" edge="1" parent="1" source="w9KVr3oSeyBHi2WgNiiw-5" target="w9KVr3oSeyBHi2WgNiiw-6">
          <mxGeometry width="160" relative="1" as="geometry">
            <mxPoint x="145" y="201" as="sourcePoint" />
            <mxPoint x="116" y="148" as="targetPoint" />
          </mxGeometry>
        </mxCell>
        <mxCell id="w9KVr3oSeyBHi2WgNiiw-46" style="edgeStyle=orthogonalEdgeStyle;rounded=0;orthogonalLoop=1;jettySize=auto;html=1;exitX=0.5;exitY=0.5;exitDx=0;exitDy=0;exitPerimeter=0;" edge="1" parent="1" source="w9KVr3oSeyBHi2WgNiiw-43" target="w9KVr3oSeyBHi2WgNiiw-1">
          <mxGeometry relative="1" as="geometry" />
        </mxCell>
        <mxCell id="w9KVr3oSeyBHi2WgNiiw-47" style="edgeStyle=orthogonalEdgeStyle;rounded=0;orthogonalLoop=1;jettySize=auto;html=1;exitX=0.5;exitY=0.5;exitDx=0;exitDy=0;exitPerimeter=0;" edge="1" parent="1" source="w9KVr3oSeyBHi2WgNiiw-43" target="w9KVr3oSeyBHi2WgNiiw-2">
          <mxGeometry relative="1" as="geometry" />
        </mxCell>
        <mxCell id="w9KVr3oSeyBHi2WgNiiw-43" value="User" style="shape=umlActor;verticalLabelPosition=bottom;verticalAlign=top;html=1;outlineConnect=0;" vertex="1" parent="1">
          <mxGeometry x="280" y="530" width="30" height="60" as="geometry" />
        </mxCell>
      </root>
    </mxGraphModel>
  </diagram>
</mxfile>
